<svg width="50" height="50" viewBox="0 0 50 50" fill="none" xmlns="http://www.w3.org/2000/svg">
<path d="M4.17084 25.0042C4.17326 35.2529 11.6258 43.9792 21.7479 45.5854V31.025H16.4625V25.0042H21.7542V20.4208C21.5176 18.2491 22.2594 16.0846 23.7784 14.5145C25.2974 12.9443 27.4362 12.1313 29.6146 12.2958C31.1782 12.3211 32.7379 12.4604 34.2813 12.7125V17.8354H31.6479C30.7413 17.7167 29.8299 18.0161 29.1704 18.6493C28.5108 19.2825 28.1745 20.181 28.2563 21.0917V25.0042H34.0292L33.1063 31.0271H28.2563V45.5854C39.2031 43.8554 46.8794 33.8579 45.724 22.8356C44.5686 11.8133 34.986 3.62486 23.9184 4.20247C12.8508 4.78007 4.1726 13.9215 4.17084 25.0042Z" fill="#0359FF"/>
</svg>
