<svg width="50" height="50" viewBox="0 0 50 50" fill="none" xmlns="http://www.w3.org/2000/svg">
<path d="M35.2813 12.6521C36.0004 15.298 36.1706 18.063 35.7813 20.7771V20.875C35.7583 21.1792 35.7438 21.4542 35.7313 21.7292C35.9372 21.8387 36.169 21.8906 36.4021 21.8792C37.006 21.8242 37.5937 21.6538 38.1333 21.3771C38.3747 21.2577 38.6411 21.1977 38.9104 21.2021C39.2014 21.1975 39.4906 21.2484 39.7625 21.3521C40.4321 21.5063 40.9275 22.0722 40.9917 22.7563C41.0194 23.509 40.3424 24.1611 38.9604 24.7125C38.8125 24.7604 38.6083 24.8396 38.3854 24.9208C37.6292 25.1479 36.475 25.5229 36.15 26.2771C36.0003 26.7701 36.0766 27.3041 36.3583 27.7354L36.3833 27.7625C37.867 31.1322 40.835 33.619 44.4125 34.4896C44.8281 34.5556 45.1293 34.9211 45.1146 35.3417C45.1124 35.4709 45.087 35.5986 45.0396 35.7188C44.6375 36.6708 42.9083 37.3854 39.7688 37.8458C39.643 38.1538 39.5508 38.4744 39.4938 38.8021C39.4416 39.1153 39.3671 39.4245 39.2708 39.7271C39.1728 40.1526 38.7768 40.4412 38.3417 40.4042H38.2917C37.9879 40.3901 37.686 40.349 37.3896 40.2813C36.6886 40.13 35.9734 40.0545 35.2563 40.0563C34.7451 40.0492 34.2344 40.091 33.7313 40.1813C32.6727 40.4586 31.6873 40.9634 30.8438 41.6604C29.2909 42.9662 27.3481 43.7189 25.3208 43.8C25.2208 43.8 25.1125 43.775 25.0167 43.775H24.7646C22.7443 43.6982 20.8101 42.9372 19.2792 41.6167C18.4456 40.9196 17.4691 40.4139 16.4188 40.1354C15.9048 40.0587 15.3863 40.0169 14.8667 40.0104C14.1496 40.021 13.4355 40.1047 12.7354 40.2604C12.438 40.3305 12.1345 40.3717 11.8292 40.3833C11.3759 40.4169 10.9636 40.1213 10.85 39.6813C10.75 39.3604 10.7021 39.0292 10.6271 38.7313C10.5685 38.4043 10.4757 38.0845 10.35 37.7771C7.13542 37.4042 5.40625 36.7 5.00625 35.7229C4.9474 35.6053 4.91269 35.4771 4.90417 35.3458C4.88949 34.9253 5.19065 34.5598 5.60625 34.4938C9.18545 33.6227 12.1541 31.1331 13.6354 27.7604L13.6542 27.7083C13.9463 27.281 14.0233 26.7421 13.8625 26.25C13.5375 25.5229 12.3813 25.1479 11.6333 24.8958C11.4341 24.8429 11.2396 24.7732 11.0521 24.6875C9.19792 23.9583 8.94584 23.1292 9.04792 22.5542C9.34339 21.7365 10.1379 21.2074 11.0063 21.25C11.2263 21.2489 11.4444 21.2914 11.6479 21.375C12.2226 21.67 12.8529 21.8411 13.4979 21.8771C13.7701 21.8852 14.0396 21.8212 14.2792 21.6917L14.1938 20.7375C13.806 18.0309 13.9769 15.2735 14.6958 12.6354C16.3865 8.7145 20.2765 6.20175 24.5458 6.27292L25.2438 6.25001H25.3458C29.6418 6.19866 33.5529 8.71883 35.2813 12.6521Z" fill="#FFF500"/>
</svg>
