<svg width="50" height="50" viewBox="0 0 50 50" fill="none" xmlns="http://www.w3.org/2000/svg">
<path d="M41.6563 13.9333C43.5238 12.8168 44.9212 11.0588 45.5875 8.98749C43.8326 10.0287 41.9126 10.7622 39.9104 11.1562C37.1346 8.21984 32.7365 7.50525 29.1738 9.41177C25.611 11.3183 23.7657 15.3739 24.6688 19.3125C17.4805 18.9516 10.7833 15.5561 6.24378 9.97082C3.8747 14.0571 5.08535 19.2808 9.01045 21.9083C7.59109 21.8627 6.20321 21.4784 4.96253 20.7875C4.96253 20.825 4.96253 20.8625 4.96253 20.9C4.96335 25.1566 7.96331 28.8231 12.1354 29.6667C10.8189 30.0248 9.43796 30.0776 8.09795 29.8208C9.27128 33.461 12.6262 35.9548 16.45 36.0292C13.283 38.5148 9.37186 39.8628 5.34587 39.8562C4.63226 39.8573 3.91922 39.8162 3.21045 39.7333C7.29876 42.3605 12.0571 43.7549 16.9167 43.75C23.6776 43.7964 30.1751 41.131 34.9557 36.35C39.7363 31.569 42.4012 25.0713 42.3542 18.3104C42.3542 17.9229 42.3452 17.5375 42.3271 17.1542C44.0781 15.8887 45.5892 14.3211 46.7896 12.525C45.1584 13.248 43.4281 13.7227 41.6563 13.9333Z" fill="#F9FAFF"/>
</svg>
